<mxfile host="app.diagrams.net" modified="2023-12-20T12:26:22.287Z" agent="Mozilla/5.0 (Windows NT 10.0; Win64; x64) AppleWebKit/537.36 (KHTML, like Gecko) Chrome/120.0.0.0 Safari/537.36 Edg/120.0.0.0" etag="rZiCGxvefjej6xyusmII" version="22.1.11" type="device">
  <diagram name="Side-1" id="Of4cBsXAWJ89yzBINzGi">
    <mxGraphModel dx="1002" dy="535" grid="1" gridSize="10" guides="1" tooltips="1" connect="1" arrows="1" fold="1" page="1" pageScale="1" pageWidth="827" pageHeight="1169" math="0" shadow="0">
      <root>
        <mxCell id="0" />
        <mxCell id="1" parent="0" />
        <mxCell id="HW-5u9f7S994316d8FzE-272" value="" style="edgeStyle=orthogonalEdgeStyle;rounded=0;orthogonalLoop=1;jettySize=auto;html=1;dashed=1;endArrow=none;endFill=0;entryX=0.5;entryY=0;entryDx=0;entryDy=0;" parent="1" source="HW-5u9f7S994316d8FzE-14" target="HW-5u9f7S994316d8FzE-27" edge="1">
          <mxGeometry relative="1" as="geometry">
            <mxPoint x="265" y="40" as="sourcePoint" />
            <mxPoint x="259" y="775" as="targetPoint" />
          </mxGeometry>
        </mxCell>
        <mxCell id="1QEQcxMeBxim5HLmF8gn-18" style="edgeStyle=orthogonalEdgeStyle;rounded=0;orthogonalLoop=1;jettySize=auto;html=1;dashed=1;endArrow=none;endFill=0;" parent="1" source="HW-5u9f7S994316d8FzE-56" target="HW-5u9f7S994316d8FzE-80" edge="1">
          <mxGeometry relative="1" as="geometry" />
        </mxCell>
        <mxCell id="HW-5u9f7S994316d8FzE-143" value="1.3: RESPONSE: JSON" style="text;html=1;align=center;verticalAlign=middle;resizable=0;points=[];autosize=1;strokeColor=none;fillColor=none;" parent="1" vertex="1">
          <mxGeometry x="477" y="410" width="150" height="30" as="geometry" />
        </mxCell>
        <mxCell id="HW-5u9f7S994316d8FzE-14" value=":Client" style="rounded=0;whiteSpace=wrap;html=1;arcSize=40;fontColor=#000000;fillColor=#ffffc0;strokeColor=#ff0000;" parent="1" vertex="1">
          <mxGeometry x="224" y="280" width="70" height="30" as="geometry" />
        </mxCell>
        <mxCell id="HW-5u9f7S994316d8FzE-17" value=":Chirp" style="rounded=0;whiteSpace=wrap;html=1;arcSize=40;fontColor=#000000;fillColor=#ffffc0;strokeColor=#ff0000;" parent="1" vertex="1">
          <mxGeometry x="437.5" y="280" width="70" height="30" as="geometry" />
        </mxCell>
        <mxCell id="HW-5u9f7S994316d8FzE-18" value=":Chirp" style="rounded=0;whiteSpace=wrap;html=1;arcSize=40;fontColor=#000000;fillColor=#ffffc0;strokeColor=#ff0000;" parent="1" vertex="1">
          <mxGeometry x="437.5" y="574" width="70" height="30" as="geometry" />
        </mxCell>
        <mxCell id="HW-5u9f7S994316d8FzE-27" value=":Client" style="rounded=0;whiteSpace=wrap;html=1;arcSize=40;fontColor=#000000;fillColor=#ffffc0;strokeColor=#ff0000;" parent="1" vertex="1">
          <mxGeometry x="224" y="574" width="70" height="30" as="geometry" />
        </mxCell>
        <mxCell id="HW-5u9f7S994316d8FzE-56" value=":MSSQL Database" style="rounded=0;whiteSpace=wrap;html=1;arcSize=40;fontColor=#000000;fillColor=#ffffc0;strokeColor=#ff0000;" parent="1" vertex="1">
          <mxGeometry x="592.31" y="280" width="89.75" height="30" as="geometry" />
        </mxCell>
        <mxCell id="HW-5u9f7S994316d8FzE-59" value="" style="edgeStyle=orthogonalEdgeStyle;rounded=0;orthogonalLoop=1;jettySize=auto;html=1;entryX=0.5;entryY=0;entryDx=0;entryDy=0;dashed=1;endArrow=none;endFill=0;exitX=0.5;exitY=1;exitDx=0;exitDy=0;" parent="1" source="HW-5u9f7S994316d8FzE-397" target="HW-5u9f7S994316d8FzE-18" edge="1">
          <mxGeometry relative="1" as="geometry">
            <mxPoint x="472.5" y="546" as="sourcePoint" />
            <mxPoint x="472.5" y="739" as="targetPoint" />
          </mxGeometry>
        </mxCell>
        <mxCell id="HW-5u9f7S994316d8FzE-62" value="" style="edgeStyle=orthogonalEdgeStyle;rounded=0;orthogonalLoop=1;jettySize=auto;html=1;entryX=0.5;entryY=0;entryDx=0;entryDy=0;dashed=1;endArrow=none;endFill=0;" parent="1" source="HW-5u9f7S994316d8FzE-17" edge="1">
          <mxGeometry relative="1" as="geometry">
            <mxPoint x="473" y="110" as="sourcePoint" />
            <mxPoint x="472.5" y="352" as="targetPoint" />
          </mxGeometry>
        </mxCell>
        <mxCell id="HW-5u9f7S994316d8FzE-64" value="1.6: RESPONSE: Public.cshtml" style="text;html=1;align=center;verticalAlign=middle;resizable=0;points=[];autosize=1;strokeColor=none;fillColor=none;" parent="1" vertex="1">
          <mxGeometry x="269.75" y="493" width="190" height="30" as="geometry" />
        </mxCell>
        <mxCell id="HW-5u9f7S994316d8FzE-66" value="" style="endArrow=classic;html=1;rounded=0;" parent="1" edge="1">
          <mxGeometry width="50" height="50" relative="1" as="geometry">
            <mxPoint x="456.75" y="520" as="sourcePoint" />
            <mxPoint x="266.75" y="520" as="targetPoint" />
            <Array as="points" />
          </mxGeometry>
        </mxCell>
        <mxCell id="HW-5u9f7S994316d8FzE-80" value=":MSSQL Database" style="rounded=0;whiteSpace=wrap;html=1;arcSize=40;fontColor=#000000;fillColor=#ffffc0;strokeColor=#ff0000;" parent="1" vertex="1">
          <mxGeometry x="591.81" y="573" width="90.25" height="30" as="geometry" />
        </mxCell>
        <mxCell id="HW-5u9f7S994316d8FzE-123" value="" style="endArrow=classic;html=1;rounded=0;" parent="1" edge="1">
          <mxGeometry width="50" height="50" relative="1" as="geometry">
            <mxPoint x="490" y="411" as="sourcePoint" />
            <mxPoint x="620" y="411" as="targetPoint" />
          </mxGeometry>
        </mxCell>
        <mxCell id="HW-5u9f7S994316d8FzE-126" value="1.2: REQUEST cheeps" style="text;html=1;align=center;verticalAlign=middle;resizable=0;points=[];autosize=1;strokeColor=none;fillColor=none;" parent="1" vertex="1">
          <mxGeometry x="473" y="384" width="150" height="30" as="geometry" />
        </mxCell>
        <mxCell id="HW-5u9f7S994316d8FzE-137" value="" style="rounded=0;whiteSpace=wrap;html=1;" parent="1" vertex="1">
          <mxGeometry x="629.68" y="401" width="15" height="50" as="geometry" />
        </mxCell>
        <mxCell id="HW-5u9f7S994316d8FzE-142" value="" style="endArrow=classic;html=1;rounded=0;" parent="1" edge="1">
          <mxGeometry width="50" height="50" relative="1" as="geometry">
            <mxPoint x="614.8" y="437.25" as="sourcePoint" />
            <mxPoint x="490" y="437" as="targetPoint" />
          </mxGeometry>
        </mxCell>
        <mxCell id="HW-5u9f7S994316d8FzE-395" value="" style="endArrow=classic;html=1;rounded=0;" parent="1" edge="1">
          <mxGeometry width="50" height="50" relative="1" as="geometry">
            <mxPoint x="270.19" y="354" as="sourcePoint" />
            <mxPoint x="460.19" y="354" as="targetPoint" />
            <Array as="points" />
          </mxGeometry>
        </mxCell>
        <mxCell id="HW-5u9f7S994316d8FzE-396" value="1: REQUEST /" style="text;html=1;align=center;verticalAlign=middle;resizable=0;points=[];autosize=1;strokeColor=none;fillColor=none;" parent="1" vertex="1">
          <mxGeometry x="317" y="328" width="100" height="30" as="geometry" />
        </mxCell>
        <mxCell id="HW-5u9f7S994316d8FzE-397" value="" style="rounded=0;whiteSpace=wrap;html=1;" parent="1" vertex="1">
          <mxGeometry x="465" y="350" width="15" height="170" as="geometry" />
        </mxCell>
        <mxCell id="1QEQcxMeBxim5HLmF8gn-13" value="" style="html=1;align=left;spacingLeft=2;endArrow=block;rounded=0;edgeStyle=orthogonalEdgeStyle;curved=0;rounded=0;" parent="1" edge="1">
          <mxGeometry relative="1" as="geometry">
            <mxPoint x="481" y="446" as="sourcePoint" />
            <Array as="points">
              <mxPoint x="511" y="476" />
            </Array>
            <mxPoint x="486" y="476" as="targetPoint" />
          </mxGeometry>
        </mxCell>
        <mxCell id="1QEQcxMeBxim5HLmF8gn-16" value="&lt;span style=&quot;color: rgb(0, 0, 0); font-family: Helvetica; font-size: 12px; font-style: normal; font-variant-ligatures: normal; font-variant-caps: normal; font-weight: 400; letter-spacing: normal; orphans: 2; text-align: center; text-indent: 0px; text-transform: none; widows: 2; word-spacing: 0px; -webkit-text-stroke-width: 0px; background-color: rgb(255, 255, 255); text-decoration-thickness: initial; text-decoration-style: initial; text-decoration-color: initial; float: none; display: inline !important;&quot;&gt;1.4: Make entity instance&amp;nbsp;from json&lt;/span&gt;" style="text;whiteSpace=wrap;html=1;" parent="1" vertex="1">
          <mxGeometry x="485" y="448" width="220" height="40" as="geometry" />
        </mxCell>
        <mxCell id="1QEQcxMeBxim5HLmF8gn-21" value="" style="html=1;align=left;spacingLeft=2;endArrow=block;rounded=0;edgeStyle=orthogonalEdgeStyle;curved=0;rounded=0;" parent="1" edge="1">
          <mxGeometry relative="1" as="geometry">
            <mxPoint x="481" y="484" as="sourcePoint" />
            <Array as="points">
              <mxPoint x="511" y="514" />
            </Array>
            <mxPoint x="486" y="514" as="targetPoint" />
          </mxGeometry>
        </mxCell>
        <mxCell id="1QEQcxMeBxim5HLmF8gn-22" value="&lt;span style=&quot;color: rgb(0, 0, 0); font-family: Helvetica; font-size: 12px; font-style: normal; font-variant-ligatures: normal; font-variant-caps: normal; font-weight: 400; letter-spacing: normal; orphans: 2; text-align: center; text-indent: 0px; text-transform: none; widows: 2; word-spacing: 0px; -webkit-text-stroke-width: 0px; background-color: rgb(255, 255, 255); text-decoration-thickness: initial; text-decoration-style: initial; text-decoration-color: initial; float: none; display: inline !important;&quot;&gt;1.5: Check if user is authorized&lt;/span&gt;" style="text;whiteSpace=wrap;html=1;" parent="1" vertex="1">
          <mxGeometry x="483" y="487" width="220" height="40" as="geometry" />
        </mxCell>
        <mxCell id="1QEQcxMeBxim5HLmF8gn-27" value="" style="html=1;align=left;spacingLeft=2;endArrow=block;rounded=0;edgeStyle=orthogonalEdgeStyle;curved=0;rounded=0;" parent="1" edge="1">
          <mxGeometry relative="1" as="geometry">
            <mxPoint x="481" y="351" as="sourcePoint" />
            <Array as="points">
              <mxPoint x="511" y="381" />
            </Array>
            <mxPoint x="486" y="381" as="targetPoint" />
          </mxGeometry>
        </mxCell>
        <mxCell id="1QEQcxMeBxim5HLmF8gn-28" value="&lt;span style=&quot;color: rgb(0, 0, 0); font-family: Helvetica; font-size: 12px; font-style: normal; font-variant-ligatures: normal; font-variant-caps: normal; font-weight: 400; letter-spacing: normal; orphans: 2; text-align: center; text-indent: 0px; text-transform: none; widows: 2; word-spacing: 0px; -webkit-text-stroke-width: 0px; background-color: rgb(255, 255, 255); text-decoration-thickness: initial; text-decoration-style: initial; text-decoration-color: initial; float: none; display: inline !important;&quot;&gt;1.1: Fetch cheeps&lt;/span&gt;" style="text;whiteSpace=wrap;html=1;" parent="1" vertex="1">
          <mxGeometry x="480" y="353" width="220" height="40" as="geometry" />
        </mxCell>
      </root>
    </mxGraphModel>
  </diagram>
</mxfile>
